<?xml version="1.0" encoding="utf-8"?>
<!DOCTYPE svg PUBLIC "-//W3C//DTD SVG 20010904//EN" "http://www.w3.org/TR/2001/REC-SVG-20010904/DTD/svg10.dtd">
<svg version="1.0" xmlns="http://www.w3.org/2000/svg" width="564px" height="1040px" viewBox="0 0 564 1040" preserveAspectRatio="xMidYMid meet">
 <g fill="#ffffff">
  <path d="M514.5 1037.8 c-8.2 -1.7 -13.5 -4 -19.4 -8.4 -3.1 -2.3 -113.6 -112.3 -245.7 -244.5 -187.1 -187.4 -240.5 -241.4 -242.1 -244.9 -4.1 -9 -4.4 -10.5 -4.4 -20 0 -9.5 0.3 -11 4.4 -20 1.6 -3.5 55.1 -57.6 242.6 -245.3 134.7 -134.8 243.2 -242.7 246.6 -245.1 8.3 -5.9 21.2 -9.4 27.6 -7.6 1.9 0.6 4.4 1 5.6 1 4 0 13.6 5.1 18.9 10.2 8.9 8.4 12.4 16.9 12.4 30.5 0 9.1 -0.3 10.6 -4.3 19.3 -1.6 3.5 -51.6 54 -227.4 230 -123.9 124 -225.3 226.2 -225.3 227 0 0.8 101.4 103 225.3 227 175.8 176 225.8 226.5 227.4 230 4 8.7 4.3 10.2 4.3 19.3 0 13.6 -3.5 22.1 -12.4 30.5 -5.8 5.5 -13.7 9.6 -20.6 10.5 -2.5 0.4 -5.4 0.9 -6.5 1.1 -1.1 0.2 -4.2 -0.1 -7 -0.6z"/>
 </g>
</svg>