<?xml version="1.0" encoding="utf-8"?>
<!DOCTYPE svg PUBLIC "-//W3C//DTD SVG 20010904//EN" "http://www.w3.org/TR/2001/REC-SVG-20010904/DTD/svg10.dtd">
<svg version="1.0" xmlns="http://www.w3.org/2000/svg" width="564px" height="1040px" viewBox="0 0 564 1040" preserveAspectRatio="xMidYMid meet">
 <g fill="#ffffff">
  <path d="M36.5 1037.6 c-6.8 -1.4 -8.4 -1.9 -14 -4.9 -7.8 -4 -18.5 -17.2 -18.5 -22.7 0 -1.1 -0.4 -2.2 -1 -2.5 -1.3 -0.8 -1.3 -21.2 0 -22 0.6 -0.3 1 -1.4 1 -2.5 0 -1 1 -3.8 2.2 -6.2 1.6 -2.9 72.4 -74.4 227.5 -229.7 129.3 -129.3 225.3 -226.1 225.3 -227.1 0 -1 -96 -97.8 -225.3 -227.1 -155.1 -155.3 -225.9 -226.8 -227.5 -229.7 -1.2 -2.4 -2.2 -5.2 -2.2 -6.2 0 -1.1 -0.5 -2.2 -1 -2.5 -0.6 -0.3 -1 -5.2 -1 -11 0 -5.8 0.4 -10.7 1 -11 0.5 -0.3 1 -1.4 1 -2.5 0 -3.2 4.3 -10.3 9.5 -15.6 4.3 -4.3 7 -6.1 15.7 -10.5 1 -0.5 3 -0.9 4.5 -0.9 1.6 0 4.3 -0.4 6.1 -0.9 6.7 -2 20.3 2 28.7 8.4 3.8 2.8 481 479.7 484.8 484.3 0.9 1.2 1.7 2.7 1.7 3.2 0 0.6 0.3 1 0.8 1 1 0 3.2 5 3.2 7.1 0 1 0.4 2.1 1 2.4 1.3 0.8 1.3 22.2 0 23 -0.5 0.3 -1 1.4 -1 2.4 0 2.1 -2.2 7.1 -3.2 7.1 -0.5 0 -0.8 0.4 -0.8 1 0 0.5 -0.8 2 -1.7 3.2 -3.6 4.4 -480.9 481.4 -484.8 484.4 -5.3 4 -11.9 7 -17.5 7.7 -2.5 0.4 -5.4 0.8 -6.5 1.1 -1.1 0.2 -4.7 -0.2 -8 -0.8z"/>
 </g>
</svg>