<svg width="20" height="20" fill="none" xmlns="http://www.w3.org/2000/svg"><g clip-path="url(#clip0)" fill="#fff"><path d="M3.544 7.06a.39.39 0 100 .781.39.39 0 000-.781z"/><path d="M14.49 11.728a.39.39 0 00-.277-.115c-.004.001-.154-.007-.276.115l-.276.276-.897-.898a7.027 7.027 0 00-.76-9.045 7.027 7.027 0 00-9.943 0 7.027 7.027 0 000 9.943 7.027 7.027 0 009.045.76l.898.897-.276.276a.39.39 0 000 .553l4.938 4.938a1.95 1.95 0 002.762 0 1.95 1.95 0 000-2.762l-4.938-4.938zm-1.934 1.38l-.836-.836a7.007 7.007 0 00.553-.552l.836.836-.553.553zm-9.942-1.657a6.246 6.246 0 010-8.837 6.246 6.246 0 018.837 0 6.245 6.245 0 010 8.837c-2.476 2.478-6.428 2.41-8.837 0zm11.6 1.105l1.104 1.105-1.657 1.657-1.105-1.105 1.657-1.657zm4.661 6.32a1.17 1.17 0 01-1.656 0l-3.006-3.006 1.657-1.657 3.005 3.006a1.17 1.17 0 010 1.656z"/><path d="M10.899 3.166a5.467 5.467 0 00-7.734 0 5.476 5.476 0 000 7.733 5.465 5.465 0 007.733 0 5.475 5.475 0 000-7.733zm-.553 7.18a4.684 4.684 0 01-6.628 0 4.686 4.686 0 116.629 0z"/><path d="M7.032 3.127A3.879 3.879 0 004.27 4.27a3.858 3.858 0 00-.934 1.5.39.39 0 10.74.252c.153-.454.405-.858.747-1.2a3.103 3.103 0 012.21-.914.39.39 0 100-.781z"/></g><defs><clipPath id="clip0"><path fill="#fff" d="M0 0h20v20H0z"/></clipPath></defs></svg>