<svg width="27" height="27" viewBox="0 0 27 27" fill="none" xmlns="http://www.w3.org/2000/svg">
<path d="M26.9188 7.93405C26.8531 6.49704 26.6249 5.51569 26.2912 4.6571C25.9523 3.75629 25.4209 2.94035 24.7341 2.26593C24.0599 1.57915 23.2437 1.04748 22.3429 0.708412C21.4841 0.374908 20.503 0.146873 19.0659 0.0815735C17.6263 0.0156555 17.1663 0 13.5 0C9.83372 0 9.37374 0.0156555 7.93405 0.0811615C6.49704 0.146873 5.51589 0.375114 4.6571 0.708824C3.75629 1.04768 2.94035 1.57915 2.26593 2.26593C1.57915 2.94015 1.04748 3.75609 0.708412 4.6569C0.374908 5.51569 0.146873 6.49704 0.0815735 7.93385C0.0156555 9.37374 0 9.83352 0 13.4998C0 17.1663 0.0156555 17.6263 0.0815735 19.0659C0.147079 20.5028 0.37532 21.4841 0.70903 22.3429C1.04789 23.2435 1.57935 24.0596 2.26614 24.7339C2.94035 25.4206 3.7565 25.9521 4.65731 26.291C5.51589 26.6249 6.49725 26.8529 7.93426 26.9186C9.37415 26.9843 9.83393 26.9998 13.5002 26.9998C17.1665 26.9998 17.6265 26.9843 19.0662 26.9186C20.5032 26.8529 21.4843 26.6249 22.3431 26.291C24.1565 25.5898 25.59 24.1563 26.2912 22.3429C26.6251 21.4841 26.8531 20.5028 26.9188 19.0659C26.9843 17.6261 27 17.1663 27 13.5C27 9.83352 26.9843 9.37374 26.9188 7.93405ZM24.4887 18.9553C24.4288 20.2716 24.2088 20.9864 24.024 21.4621C23.5698 22.6395 22.6393 23.57 21.4619 24.0242C20.9862 24.209 20.2714 24.429 18.9551 24.4889C17.5319 24.554 17.1049 24.5676 13.5 24.5676C9.89491 24.5676 9.46809 24.554 8.04467 24.4889C6.72858 24.429 6.01378 24.209 5.53793 24.0242C4.95168 23.8077 4.42124 23.4627 3.98577 23.0142C3.53732 22.5788 3.19228 22.0485 2.97578 21.4621C2.79101 20.9864 2.57101 20.2716 2.51106 18.9553C2.44617 17.5319 2.43237 17.1049 2.43237 13.5002C2.43237 9.89532 2.44617 9.4685 2.51106 8.04488C2.57121 6.72858 2.79101 6.01378 2.97578 5.53814C3.19228 4.95168 3.53753 4.42124 3.98577 3.98577C4.42124 3.53732 4.95168 3.19228 5.53814 2.97599C6.01378 2.79101 6.72858 2.57121 8.04488 2.51106C9.46829 2.44617 9.89532 2.43237 13.5 2.43237H13.4998C17.1045 2.43237 17.5315 2.44617 18.9551 2.51127C20.2714 2.57121 20.986 2.79121 21.4619 2.97599C22.0481 3.19249 22.5786 3.53753 23.014 3.98577C23.4625 4.42124 23.8075 4.95168 24.0238 5.53814C24.2088 6.01378 24.4288 6.72858 24.4887 8.04488C24.5536 9.46829 24.5674 9.89532 24.5674 13.5C24.5674 17.1049 24.5538 17.5317 24.4887 18.9553Z" fill="url(#paint0_linear)"/>
<path d="M13.4997 6.56738C9.67109 6.56738 6.56738 9.6713 6.56738 13.4999C6.56738 17.3285 9.67109 20.4322 13.4997 20.4322C17.3285 20.4322 20.4322 17.3285 20.4322 13.4999C20.4322 9.6713 17.3285 6.56738 13.4997 6.56738ZM13.4997 17.9998C11.0146 17.9996 8.99976 15.985 8.99996 13.4997C8.99996 11.0146 11.0146 8.99976 13.4999 8.99976C15.9852 8.99996 17.9998 11.0146 17.9998 13.4997C17.9998 15.985 15.985 17.9998 13.4997 17.9998Z" fill="url(#paint1_linear)"/>
<path d="M22.3263 6.29397C22.3263 7.1886 21.601 7.9139 20.7063 7.9139C19.8115 7.9139 19.0862 7.1886 19.0862 6.29397C19.0862 5.39913 19.8115 4.67383 20.7063 4.67383C21.601 4.67383 22.3263 5.39913 22.3263 6.29397Z" fill="url(#paint2_linear)"/>
<defs>
<linearGradient id="paint0_linear" x1="2.26579" y1="24.734" x2="24.7342" y2="2.26558" gradientUnits="userSpaceOnUse">
<stop stop-color="#FFD600"/>
<stop offset="0.5" stop-color="#FF0100"/>
<stop offset="1" stop-color="#D800B9"/>
</linearGradient>
<linearGradient id="paint1_linear" x1="8.59786" y1="18.4018" x2="18.4018" y2="8.59786" gradientUnits="userSpaceOnUse">
<stop stop-color="#FF6400"/>
<stop offset="0.5" stop-color="#FF0100"/>
<stop offset="1" stop-color="#FD0056"/>
</linearGradient>
<linearGradient id="paint2_linear" x1="19.5608" y1="7.43936" x2="21.8517" y2="5.14839" gradientUnits="userSpaceOnUse">
<stop stop-color="#F30072"/>
<stop offset="1" stop-color="#E50097"/>
</linearGradient>
</defs>
</svg>
