<svg width="22" height="22" viewBox="0 0 22 22" fill="none" xmlns="http://www.w3.org/2000/svg">
<g clip-path="url(#clip0)">
<path d="M19.8594 14.9498L17.0107 12.107C15.9933 11.0918 14.2637 11.4979 13.8567 12.8177C13.5515 13.7315 12.5341 14.2391 11.6184 14.036C9.58363 13.5284 6.83664 10.8887 6.32794 8.75666C6.02272 7.84289 6.63316 6.82762 7.54883 6.52308C8.87145 6.11697 9.27841 4.39102 8.26101 3.37576L5.41228 0.533014C4.59836 -0.177671 3.37748 -0.177671 2.66529 0.533014L0.732229 2.46202C-1.20084 4.49255 0.935709 9.87346 5.7175 14.6452C10.4993 19.417 15.8915 21.6506 17.9263 19.62L19.8594 17.691C20.5716 16.8788 20.5716 15.6605 19.8594 14.9498Z" fill="#DF463D"/>
</g>
<defs>
<clipPath id="clip0">
<rect width="22" height="22" fill="white"/>
</clipPath>
</defs>
</svg>
