<svg width="27" height="27" viewBox="0 0 27 27" fill="none" xmlns="http://www.w3.org/2000/svg">
<g clip-path="url(#clip0)">
<path d="M22.4044 14.6565C21.9679 14.1053 22.0928 13.86 22.4044 13.3673C22.41 13.3616 26.0134 8.38238 26.3846 6.69375L26.3869 6.69262C26.5714 6.07725 26.3869 5.625 25.4948 5.625H22.5427C21.7913 5.625 21.4447 6.01312 21.2591 6.44737C21.2591 6.44737 19.7561 10.0451 17.6299 12.3773C16.9436 13.0511 16.6264 13.2671 16.2518 13.2671C16.0672 13.2671 15.7804 13.0511 15.7804 12.4358V6.69262C15.7804 5.95462 15.57 5.625 14.9479 5.625H10.3061C9.83475 5.625 9.55462 5.96925 9.55462 6.28988C9.55462 6.98963 10.6178 7.1505 10.728 9.11925V13.3909C10.728 14.3269 10.5581 14.499 10.1813 14.499C9.17775 14.499 6.74213 10.8866 5.29875 6.75225C5.00738 5.95012 4.72275 5.62612 3.96563 5.62612H1.0125C0.169875 5.62612 0 6.01425 0 6.4485C0 7.21575 1.0035 11.0306 4.6665 16.0706C7.10775 19.5109 10.5458 21.375 13.6733 21.375C15.5531 21.375 15.7826 20.961 15.7826 20.2489C15.7826 16.9616 15.6128 16.6511 16.5544 16.6511C16.9909 16.6511 17.7424 16.8671 19.4974 18.5265C21.5033 20.4941 21.8329 21.375 22.9556 21.375H25.9076C26.7491 21.375 27.1755 20.961 26.9303 20.1443C26.3689 18.4264 22.5754 14.8928 22.4044 14.6565Z" fill="#4B729F"/>
</g>
<defs>
<clipPath id="clip0">
<rect width="27" height="27" fill="white"/>
</clipPath>
</defs>
</svg>
