<!DOCTYPE svg PUBLIC "-//W3C//DTD SVG 20010904//EN" "http://www.w3.org/TR/2001/REC-SVG-20010904/DTD/svg10.dtd">
<svg version="1.0" xmlns="http://www.w3.org/2000/svg" width="594px" height="1040px" viewBox="0 0 5940 10400" preserveAspectRatio="xMidYMid meet">
<g id="layer101" fill="#000000" stroke="none">
</g>
<g id="layer102" fill="#666666" stroke="none">
<path d="M618 10389 c-2 -6 -26 -13 -53 -15 -221 -20 -425 -185 -499 -404 -8 -25 -20 -74 -25 -110 -15 -91 -15 -9229 0 -9320 23 -142 75 -247 172 -344 101 -101 198 -151 342 -179 86 -17 4744 -17 4830 0 144 28 241 78 342 179 97 97 149 202 172 344 15 91 15 9219 0 9310 -23 144 -75 247 -179 350 -96 96 -240 170 -331 170 -45 0 -80 10 -73 21 3 5 -982 9 -2345 9 -1697 0 -2350 -3 -2353 -11z m4792 -356 c58 -28 113 -85 142 -148 l23 -50 3 -560 c2 -308 0 -575 -3 -592 l-6 -33 -2599 0 -2600 0 -5 23 c-3 12 -5 279 -3 592 l3 570 23 50 c37 81 96 133 192 168 8 3 1088 5 2400 4 l2385 -2 45 -22z m164 -1719 c8 -20 8 -6892 0 -6922 l-6 -22 -2598 0 c-2360 0 -2598 1 -2604 16 -8 20 -8 6908 0 6928 6 15 244 16 2604 16 2360 0 2598 -1 2604 -16z m-4 -7279 c9 -11 11 -74 8 -247 -3 -218 -5 -236 -27 -280 -28 -58 -92 -122 -151 -151 l-45 -22 -2375 -3 c-2663 -2 -2426 -9 -2519 74 -27 24 -59 65 -72 91 -22 45 -24 61 -27 286 -3 177 -1 241 8 252 11 13 340 15 2600 15 2261 0 2589 -2 2600 -15z"/>
<path d="M2625 9848 c-54 -19 -150 -69 -177 -92 -39 -35 -96 -112 -119 -164 -32 -70 -51 -194 -43 -282 19 -222 124 -360 334 -441 27 -11 109 -14 350 -14 241 0 323 3 350 14 224 86 334 244 334 481 0 251 -123 425 -355 499 -46 14 -631 13 -674 -1z m634 -330 c49 -35 61 -67 61 -161 0 -80 -3 -92 -26 -122 -47 -62 -61 -65 -329 -65 -265 0 -281 3 -323 59 -19 26 -22 43 -22 122 0 119 20 155 100 183 8 3 128 4 265 3 217 -2 253 -4 274 -19z"/>
<path d="M2070 843 c-71 -9 -130 -80 -130 -155 0 -48 39 -109 85 -135 l40 -23 905 0 905 0 40 23 c45 25 85 87 85 131 0 45 -36 108 -77 136 l-38 25 -890 1 c-489 1 -906 -1 -925 -3z"/>
<path d="M4837 843 c-28 -3 -49 -15 -78 -44 -37 -37 -39 -42 -39 -100 0 -75 22 -115 80 -148 38 -21 50 -22 175 -19 145 3 163 9 209 72 30 39 29 130 -2 173 -40 56 -63 65 -191 68 -64 2 -133 1 -154 -2z"/>
</g>


</svg>