<svg version="1.0" xmlns="http://www.w3.org/2000/svg" width="1125" height="1080"><g fill="#fff"><path d="M193.5 1078.3c-1.6-.2-8.2-1.5-14.5-2.9-13.9-3-32.6-11.7-46.3-21.5-24.1-17.1-43.2-45.5-50.8-75.4-2.6-10.3-3.7-38.4-2-50.6 1.6-10.8 7.9-29.7 13.6-40.7 16.9-32.7 48.9-57.6 85.1-66.4l9.2-2.3 1.2-8c.6-4.4 3.1-20.6 5.6-36 9.2-57.6 9.4-59.5 7.9-69.8-2-13.3-20.5-128.1-27.6-170.7-1.6-10.2-5.9-36.3-9.4-58-3.5-21.7-12.5-77.1-20-123-7.4-45.9-17.1-106-21.6-133.5-4.4-27.5-10.4-64.1-13.3-81.3l-5.2-31.3-10.4-5.3c-88.8-45-84.9-42.7-90.5-54-5-9.9-5.1-17.6-.4-27.7C9 9.3 15.9 4.2 28.3 1.9c6-1.1 7.2-1 13.2 1 7.4 2.4 7.1 2.3 30 14C87.4 25.2 120.1 42 142 53.2c19.2 9.9 21.8 13.5 26.1 36.7 2.8 15.3 12.1 71.9 19.4 118.5 1.9 12 3.7 22.1 4 22.4.9.9 85.5 6.6 135.5 9.2 11.3.6 44.4 2.6 73.5 4.5 29.2 1.9 76.2 4.8 104.5 6.5 28.3 1.7 82.6 5 120.5 7.5 38 2.4 78 4.9 89 5.5 11 .6 58.7 3.5 106 6.5s90.3 5.7 95.5 6c28.8 1.6 145 8.9 168 10.5 8 .6 16.7 1.8 19.5 2.7 7 2.3 15.4 10.8 18.3 18.6 3.9 10.3 3.8 10.9-9.4 60.2-3.5 13.2-9.3 35.3-12.9 49-3.7 13.8-9 34-12 45-7.2 26.8-17.1 63.9-24.5 92-7.5 28.8-15.1 57.5-22.9 86.5-3.2 12.4-9.2 34.7-13.1 49.5-10.2 38.2-10.2 38.3-16.3 44.9-4.2 4.7-6.5 6.2-12 8.2l-6.8 2.4H628c-266.9 0-364 .3-364 1.1 0 1.8-6.8 46.1-9.5 61.9-1.3 7.9-2.1 14.8-1.7 15.2.4.4 4.3 2.2 8.8 4.1 27.3 11.7 51.8 35.3 64.9 62.5l3.9 8.2h469.3l1.1-3.7c2.5-8.3 17.4-30.4 26.8-39.7 17.7-17.7 42.2-30.6 68.7-36.3 10-2.2 37-2.4 46.2-.4 36.7 7.8 63.5 25 85.6 55.1 4.9 6.6 12.8 22.5 15.7 31.5 5.6 17 6.7 24.4 6.6 43.5-.1 16.7-.2 18.1-3.7 31.3-6.7 25.9-20.3 48.1-40 65.6-39.9 35.3-95.8 43-143.2 19.6-15.5-7.6-27.3-16.3-38.4-28.2-17.3-18.4-28.9-41.1-33.8-66l-1.6-8.3H339.2l-1.7 9.3c-4.7 25.9-17.8 50.1-37.7 69.3-11.1 10.8-19.8 16.9-34.2 23.9-13.9 6.9-26 10.5-41.6 12.4-8.1 1.1-24.3 1.2-30.5.4zm36.3-67.6c21.2-7.4 36.4-23.4 43.2-45.2 1.6-5.2 2.1-9.6 2.1-17.1 0-20.2-6.3-34.8-21.2-48.9-12.3-11.7-27.1-17.5-44.3-17.5-12.2 0-19.3 1.6-30.4 7.1-15.4 7.5-26.8 20.8-32.8 38.4-2.4 6.9-2.8 9.6-2.8 20-.1 10.1.3 13.1 2.3 19 7.3 21.4 18.3 33.4 39.2 43 7.5 3.4 15.2 4.5 27.7 4 7.3-.4 12.3-1.2 17-2.8zm710.5.2c17.1-5.7 31.2-18 39.1-34 3.2-6.6 4.9-11.6 5.7-16.9 1.5-10.1.6-25.9-2.1-33.5-7.2-20.9-25.2-37.4-46.6-42.9-8-2.1-24.1-2.1-31.9-.1-25.4 6.6-43.6 25.9-48.9 51.7-2.7 13.1-1.8 22.6 3.6 37.1 4.4 11.9 14.5 24.5 24.5 30.5 9.8 5.9 17.9 9.2 24.8 10.2 9.2 1.3 24.6.3 31.8-2.1zm27.6-349.6c5.1-19.4 11-41.6 23-86.5 3.3-12.3 8.7-32.9 12.1-45.8 3.4-12.9 8.8-33.5 12.1-45.7 29.4-110.4 34.9-131.4 34.9-133 0-.6-6.3-1.3-14.7-1.7-8.2-.3-50.1-2.9-93.3-5.6-43.2-2.7-87-5.4-97.5-6-10.4-.6-54.1-3.3-97-6s-125.9-7.9-184.5-11.5c-58.6-3.6-145.9-9-194-12-48.1-3-103.7-6.4-123.5-7.5-19.8-1.1-37.7-2.2-39.9-2.5-3.8-.6-3.9-.5-3.3 2.2.3 1.5 5.7 34.8 12.1 73.8 6.4 39.1 14.1 86.1 17.1 104.5 3 18.4 8.7 53.1 12.5 77 3.9 23.9 9.7 59.9 13 80 3.2 20.1 6.1 38.6 6.5 41.3l.6 4.7h698.6l5.2-19.7z"/><path d="M698.8 628.7c-3.6-1.7-20.7-18-70.6-67.4l-65.9-65.2-.5 25.2c-.4 24.5-.5 25.4-3 30.8-3.3 7.3-8.9 13.4-15.2 16.7-4.4 2.3-6.3 2.7-14.1 2.7-7.1 0-10-.5-13.7-2.2-6.3-2.9-12.5-9.5-16.1-17.1l-3-6.3.5-67.2c.5-65.7.6-67.3 2.6-72.7 2.7-6.8 9.1-14.4 14.6-17.2 5.8-3 29.9-3.9 95.1-3.6 59.2.3 55.6-.2 65.1 9.3 6.8 6.8 9.7 14.3 9.2 24-.4 8.6-3.2 14.7-9.5 21-8.7 8.5-10.2 8.9-39.5 9.3-14.2.3-25.8.7-25.8 1 0 .2 29 29.7 64.5 65.3 49.1 49.5 65.1 66.1 67.2 70.1 2.4 4.6 2.8 6.5 2.8 13.8 0 7.3-.4 9.3-2.8 14.2-3.1 6.3-9.5 12.5-16.1 15.8-6.2 2.9-19.3 2.8-25.8-.3z"/></g></svg>