<svg width="17" height="17" fill="none" xmlns="http://www.w3.org/2000/svg"><path d="M8.379 8.189a3.962 3.962 0 002.895-1.2 3.962 3.962 0 001.2-2.895 3.962 3.962 0 00-1.2-2.895A3.963 3.963 0 008.379 0c-1.125 0-2.1.403-2.895 1.2a3.962 3.962 0 00-1.2 2.894c0 1.125.404 2.1 1.2 2.895.796.796 1.77 1.2 2.895 1.2zm-2.19-6.285a2.96 2.96 0 012.19-.908c.863 0 1.58.297 2.19.908.611.61.908 1.327.908 2.19a2.96 2.96 0 01-.908 2.191 2.96 2.96 0 01-2.19.908 2.96 2.96 0 01-2.19-.908 2.96 2.96 0 01-.909-2.19c0-.864.297-1.58.908-2.191zm9.354 11.168a10.225 10.225 0 00-.137-1.074 8.454 8.454 0 00-.265-1.08 5.337 5.337 0 00-.444-1.007 3.797 3.797 0 00-.67-.873 2.951 2.951 0 00-.96-.604 3.323 3.323 0 00-1.229-.222c-.173 0-.34.071-.665.282l-.693.447a3.972 3.972 0 01-.897.395 3.562 3.562 0 01-1.097.177c-.365 0-.734-.06-1.098-.177a3.96 3.96 0 01-.896-.395 95.327 95.327 0 01-.694-.447c-.324-.211-.491-.282-.665-.282a3.32 3.32 0 00-1.228.222 2.95 2.95 0 00-.961.604 3.798 3.798 0 00-.67.873 5.344 5.344 0 00-.444 1.007 8.487 8.487 0 00-.264 1.08 9.92 9.92 0 00-.137 1.075 14.55 14.55 0 00-.034 1.003c0 .888.282 1.606.838 2.136.55.523 1.276.788 2.16.788h8.186c.884 0 1.61-.265 2.16-.788.557-.53.839-1.248.839-2.136 0-.342-.012-.68-.035-1.004zm-1.49 2.418c-.364.346-.846.514-1.474.514H4.393c-.628 0-1.11-.168-1.473-.514-.356-.338-.53-.801-.53-1.414 0-.318.011-.633.032-.935.02-.296.063-.621.125-.967a7.48 7.48 0 01.232-.952c.09-.278.21-.554.361-.82.144-.252.31-.47.492-.644.171-.163.386-.297.64-.398.235-.093.498-.143.785-.151.035.018.097.054.197.12l.702.452c.294.187.673.357 1.126.503.463.15.935.226 1.404.226.468 0 .94-.076 1.403-.226a4.94 4.94 0 001.127-.503l.701-.452c.1-.066.163-.102.198-.12.286.008.55.058.785.151.253.1.468.235.64.398.182.175.347.392.491.645.151.265.273.54.362.819.093.29.17.61.232.952.062.346.104.672.125.968.02.3.031.615.031.934 0 .613-.173 1.075-.529 1.414z" fill="#85D700"/></svg>