<?xml version="1.0" encoding="utf-8"?>
<!DOCTYPE svg PUBLIC "-//W3C//DTD SVG 20010904//EN" "http://www.w3.org/TR/2001/REC-SVG-20010904/DTD/svg10.dtd">
<svg version="1.0" xmlns="http://www.w3.org/2000/svg" width="586px" height="1080px" viewBox="0 0 586 1080" preserveAspectRatio="xMidYMid meet">
 <g fill="#00cd5e">
  <path d="M537 1078.1 c-0.8 -0.6 -3 -1.1 -4.8 -1.1 -3.8 0 -13.3 -4.2 -17.7 -7.8 -6.2 -5 -502.2 -501.2 -504.8 -505 -4.8 -6.9 -6.7 -13.7 -6.7 -24.2 0 -10.5 1.8 -17.2 6.7 -24.4 1.5 -2.3 73.5 -74.7 160 -161.1 86.5 -86.3 199.7 -199.4 251.5 -251.2 89 -88.9 94.7 -94.4 100.8 -97.1 13.4 -6 24.3 -5.9 37.6 0.4 10.3 4.9 17 12.5 22.3 25.7 1.4 3.6 1.4 21.8 0 25.4 -4.8 11.9 0.3 6.7 -239.1 246 -128 128 -233.3 233 -233.8 233.1 -1.3 0.5 -1.3 5.9 0 6.4 0.5 0.2 105.8 105.1 233.8 233.1 239.4 239.3 234.3 234.1 239.1 246 1.4 3.6 1.4 21.8 0 25.4 -5.1 12.7 -11.9 20.7 -21.5 25.4 -3.6 1.8 -8.4 3.6 -10.7 4 -2.3 0.4 -5.8 1 -7.7 1.3 -1.9 0.4 -4.2 0.2 -5 -0.3z"/>
 </g>
</svg>