<?xml version="1.0" encoding="utf-8"?>
<!DOCTYPE svg PUBLIC "-//W3C//DTD SVG 20010904//EN" "http://www.w3.org/TR/2001/REC-SVG-20010904/DTD/svg10.dtd">
<svg version="1.0" xmlns="http://www.w3.org/2000/svg" width="586px" height="1080px" viewBox="0 0 586 1080" preserveAspectRatio="xMidYMid meet">
 <g fill="#00cd5e">
  <path d="M41.5 1078 c-1.1 -0.5 -3.3 -0.9 -4.9 -0.9 -1.6 -0.1 -6.1 -1.7 -10.1 -3.6 -10.5 -5 -17.1 -12.6 -22.4 -25.8 -1.4 -3.6 -1.4 -21.8 0 -25.4 4.8 -11.9 -0.3 -6.7 239.1 -246 128 -128 233.3 -232.9 233.8 -233.1 1.3 -0.5 1.3 -5.9 0 -6.4 -0.5 -0.1 -105.8 -105.1 -233.8 -233.1 -239.4 -239.3 -234.3 -234.1 -239.1 -246 -1.4 -3.6 -1.4 -21.8 0 -25.4 5.3 -13.2 12 -20.8 22.3 -25.7 7 -3.3 13.2 -4.9 19.1 -4.8 8.9 0.1 19.6 3.8 26 9 6.1 4.9 502.2 501.2 504.8 505 4.8 6.9 6.7 13.7 6.7 24.2 0 10.5 -1.8 17.2 -6.7 24.4 -1.5 2.3 -73.5 74.8 -160 161.1 -86.5 86.4 -199.7 199.4 -251.5 251.2 -85.3 85.2 -94.9 94.5 -100.3 96.9 -8 3.7 -19.7 5.9 -23 4.4z"/>
 </g>
</svg>