<?xml version="1.0" encoding="utf-8"?>
<!DOCTYPE svg PUBLIC "-//W3C//DTD SVG 20010904//EN" "http://www.w3.org/TR/2001/REC-SVG-20010904/DTD/svg10.dtd">
<svg version="1.0" xmlns="http://www.w3.org/2000/svg" width="2133px" height="2047px" viewBox="0 0 2133 2047" preserveAspectRatio="xMidYMid meet">
 <g fill="#ff443a">
  <path d="M373.3 2045.2 c-10.2 -1 -28.9 -4.5 -39.4 -7.3 -4 -1 -9.6 -2.4 -12.5 -3.1 -2.8 -0.6 -6.6 -1.8 -8.4 -2.6 -1.7 -0.8 -6 -2.6 -9.4 -4.1 -20.6 -8.5 -52.6 -27.6 -60.5 -36.1 -1.8 -1.8 -3.8 -3.2 -4.6 -3.2 -2.9 0 -41 -40.2 -41 -43.5 0 -0.4 -1.1 -2 -2.5 -3.4 -3.6 -3.8 -14.6 -21.3 -18.3 -28.8 -17.7 -36.6 -24.1 -57.6 -26.8 -86 -2.7 -28.7 -1.6 -59.2 2.8 -81.2 4.2 -20.9 18.7 -58.7 28.6 -74.5 10.9 -17.3 17.6 -26.4 27.8 -38.1 13.1 -14.8 12 -13.8 20.2 -20.8 3.6 -3 9.3 -8.2 13 -11.3 3.7 -3.1 8 -6.5 9.9 -7.4 3.6 -1.8 13.4 -8.3 14.2 -9.4 0.7 -0.8 18.6 -10.9 21.9 -12.2 10.9 -4.4 21.9 -9 24.6 -10.1 5 -2.2 27.5 -8.7 35.2 -10 l6.9 -1.3 1.1 -5.9 c0.6 -3.2 1.6 -10 2.2 -15.3 0.6 -5.1 6.4 -41 12.6 -79.5 6.3 -38.5 11.4 -71.6 11.4 -73.6 0 -2 0.8 -7.9 1.8 -13.4 2.1 -11.5 2.3 -9.5 -8.7 -76 -7.8 -48.2 -15.3 -94.1 -18.3 -114.4 -1.3 -7.7 -3.8 -23.3 -5.6 -34.5 -11.7 -68 -15.2 -89.2 -15.2 -92.5 0 -2 -1.6 -13 -3.6 -24.4 -5.9 -33.2 -20.3 -120.7 -22.5 -136.6 -1.3 -8 -5.7 -35.3 -10 -60.6 -4.4 -25.3 -8.7 -51.4 -9.5 -58 -0.9 -6.6 -5.2 -33.1 -9.5 -59 -4.3 -25.8 -9.4 -57.4 -11.4 -70 -2 -12.6 -6.3 -38.8 -9.4 -58 -13.5 -83.3 -17.2 -106.2 -20.1 -124.9 -1.8 -10.9 -6.9 -42.6 -11.5 -70.5 -4.7 -27.9 -8.9 -54.4 -9.5 -59 -0.6 -4.6 -4.9 -30.4 -9.5 -57.5 -4.6 -27 -8.9 -52.5 -9.5 -56.5 l-1.1 -7.5 -5 -2.7 c-2.7 -1.5 -5.6 -2.7 -6.5 -2.7 -0.7 0 -4.5 -1.9 -8.4 -4.1 -6 -3.4 -13.3 -7.2 -41.1 -21.2 -2.3 -1.1 -12.1 -6.3 -21.7 -11.4 -9.6 -5.1 -18 -9.3 -18.5 -9.3 -0.6 0 -5.4 -2.4 -10.7 -5.3 -5.3 -3 -19.1 -10.1 -30.6 -15.9 -34.8 -17.5 -41.5 -22.7 -49.4 -39.4 -8.4 -17.3 -9.3 -29.9 -3.8 -46.6 1.4 -4.2 3.7 -9.3 5.1 -11.4 1.5 -2.2 2.6 -4.5 2.6 -5.2 0 -2.1 12.4 -14 17.1 -16.4 2.3 -1.1 6.4 -3.2 9 -4.6 2.6 -1.3 8.7 -3.1 13.5 -4.1 12.3 -2.5 21.7 -1.7 33.4 3.2 4.9 2 11.3 4.6 14.1 5.6 2.8 1.1 5.4 2.4 5.7 2.9 0.9 1.3 37.4 20.1 39 20.1 0.7 0 3 1.1 5.1 2.5 2 1.4 15.2 8.4 29.2 15.6 14.1 7.1 39.3 20 55.9 28.4 16.7 8.5 33.5 17.2 37.4 19.4 4 2.3 7.6 4.1 8.2 4.1 1.6 0 9.1 4 12.2 6.6 5.7 4.6 17.6 17.2 19.2 20.7 0.9 2 2.7 6.9 4 10.9 2.1 7.1 15.7 84.3 20 113.9 1.1 8 5.4 34.6 9.5 59 9.7 59.3 15.2 93.1 17.1 107.7 0.9 6.6 2 12.6 2.4 13.3 0.7 1.3 4.6 1.6 104.1 8 22.5 1.5 62.3 4 88.6 5.7 26.4 1.7 51.9 3.1 57 3.1 8 0 46.3 2.4 210.3 13.1 62.7 4.1 151.4 9.4 182.9 11 19.9 1 63.2 3.8 278.6 17.8 44.3 2.8 84.8 5.2 89.9 5.2 5.1 0 19.6 0.7 32.3 1.6 12.6 0.8 34.1 2.2 47.6 3.1 75.7 4.8 178.8 11.5 227.4 14.6 30.5 2 59.5 3.7 64.3 3.7 7.1 0 135 8 307.7 19.3 32.7 2.1 38.6 3.3 48.9 10.1 17.2 11.3 27.3 27.8 29.6 48.5 0.8 7.6 -0.7 16.1 -6.9 37.7 -2.3 8.2 -4.2 15.8 -4.2 16.8 0 2 -2.4 11 -11.5 43.6 -2.4 8.7 -5.4 19.8 -6.8 24.7 -1.3 5 -2.6 9.5 -3 10.1 -0.3 0.5 -1 4 -1.7 7.6 -0.5 3.7 -2.9 13.5 -5.3 21.8 -2.3 8.4 -5.3 19.1 -6.7 24 -7.8 29.4 -11 41.3 -13 49.6 -1.3 5.2 -3.9 15.3 -5.9 22.5 -9.4 33.2 -11.3 40.2 -18.6 69.5 -1.5 5.7 -5.7 21.7 -9.6 35.5 -3.9 13.8 -7.9 29.1 -9.1 34 -2.5 10.3 -8 31.6 -12.2 46.5 -6.1 21.7 -12.4 46.2 -13.4 51.2 -0.6 2.9 -3 12.3 -5.5 20.9 -2.4 8.7 -5.5 19.6 -6.8 24.6 -7.1 26.2 -9.9 37 -11.9 45.5 -2.2 9.3 -3 12.3 -11.6 42.8 -2.4 8.7 -5.5 20.4 -7 26.1 -1.4 5.7 -3.9 15.9 -5.6 22.5 -3.1 12.2 -4.1 15.8 -13 47.6 -2.7 9.8 -5.6 20.6 -6.5 24 -5.4 23.6 -7.1 28.4 -13 36.2 -6.3 8.5 -14.7 16.9 -18.7 18.9 -7.4 3.6 -17.5 7.1 -22.9 8.2 -3.7 0.7 -243.4 1 -692.9 1 l-687.3 0 -1.8 11.3 c-1 6.2 -1.8 12.5 -1.8 14.2 0 2.5 -17.9 113.2 -19.3 119.3 -0.4 1.9 0.9 2.6 10.8 6.5 12.2 4.8 24.5 10.7 29.8 14.2 6.8 4.6 20.7 13.2 21.2 13.2 0.8 0 23.3 19 29.2 24.7 6.2 6 21.4 22.4 21.4 23.1 0 0.4 12.4 18.1 15.8 22.3 1.1 1.5 6.2 11 11.2 21.1 l9.1 18.6 443.7 0 443.7 0 1.8 -4.9 c3.8 -10.2 4.2 -11.4 6.5 -14.9 1.3 -2 4 -6.8 6.1 -10.7 2.1 -3.9 4.4 -7.6 5.1 -8.4 2.1 -2.2 7 -9.7 7 -10.8 0 -1.5 7.7 -11.1 15.5 -19.3 4.1 -4.3 7.4 -8.4 7.5 -8.9 0 -1.3 6.9 -8.2 9.5 -9.5 0.9 -0.5 5.7 -4.6 10.7 -9.1 9.7 -9 15.2 -13.3 16.8 -13.3 0.6 0 3.6 -1.8 6.4 -4 19.8 -14.9 52.9 -29.1 85.2 -36.4 34.3 -7.7 72.5 -7.5 107.1 0.8 13.1 3.1 37.4 11.3 43.9 14.8 1.8 0.9 3.8 1.7 4.5 1.7 2.1 0 16.6 7.7 27.4 14.7 14.4 9.3 25.4 17.3 33.2 24.5 8.9 8 26.3 25.9 26.3 27 0 0.4 1.5 2.3 3.1 4.2 5.2 5.4 17.7 22.8 20.1 27.9 1.1 2.6 4.4 8.7 7.1 13.6 2.8 4.9 6.3 11.9 7.8 15.7 1.6 3.8 3.7 8.8 4.8 11.1 1 2.4 2.5 6.7 3.1 9.4 0.7 2.8 2.3 9.1 3.7 14 6.4 23.5 9.4 48.7 8.5 72.1 -0.8 20.1 -2.7 32.2 -8.2 54.3 -5.3 21.4 -8.4 29.6 -17 46.6 -12.5 24.4 -14.7 27.9 -26.4 42.5 -3.7 4.6 -6.6 8.6 -6.6 9 0 1.1 -30.5 31.5 -31.8 31.6 -0.6 0 -4.2 2.6 -7.9 5.7 -10.3 8.7 -21.8 16 -39.3 24.8 -15.9 7.9 -36 16.4 -39.3 16.4 -0.9 0 -7.3 1.4 -14.1 3.1 -32.9 8.3 -66.8 9.4 -99.6 3.6 -16 -2.8 -38.2 -8.7 -45.5 -11.9 -2.3 -1 -7.2 -3.1 -11 -4.7 -3.8 -1.6 -10.9 -5.1 -15.9 -7.9 -5 -2.8 -9.7 -5.1 -10.5 -5.1 -1.4 -0.1 -22.7 -15 -30.6 -21.4 -10.5 -8.5 -20.6 -17.9 -27.3 -25.3 -8 -9 -21.3 -25 -21.3 -25.8 0 -0.3 -3.6 -6 -7.8 -12.5 -7.9 -12.2 -13 -21.4 -15.6 -28.5 -0.8 -2.2 -3.7 -9.4 -6.4 -16 -5.3 -13.3 -11.2 -34.6 -13.2 -47.8 l-1.3 -8.7 -426.7 0 -426.7 0 -0.6 5 c-0.4 2.7 -1.8 10.1 -3.1 16.4 -1.4 6.4 -2.7 13.3 -3.1 15.4 -1 6.4 -8.6 25.5 -15.8 40 -3.7 7.5 -6.7 14 -6.7 14.4 0 0.4 -0.5 1.4 -1 2.1 -0.6 0.7 -4 5.7 -7.4 11.2 -3.6 5.4 -7.3 10.8 -8.5 11.9 -1.1 1 -3.7 4.4 -5.6 7.5 -3.7 5.7 -35 38 -36.9 38 -0.6 0 -4.1 2.5 -7.6 5.5 -9.9 8.5 -20.7 15.3 -37.7 24.1 -15.4 8 -37.7 17.3 -41.5 17.3 -1 0 -6.4 1.1 -11.7 2.6 -17.7 4.8 -33.3 6.9 -54.7 7.3 -10.9 0.2 -23.7 0 -28.5 -0.5z m40 -125.3 c14.7 -1.3 30.3 -6.6 44.9 -15.4 5.6 -3.3 11.7 -7 13.4 -7.9 4.4 -2.5 25.3 -24.4 27.7 -28.8 1 -2.1 4.4 -8 7.4 -13.3 5.7 -10 11.8 -27.5 13.7 -39.2 2.9 -18.9 0.3 -44.6 -6.3 -61.2 -3.4 -8.7 -9.3 -20.5 -10.5 -21.3 -0.4 -0.3 -2.3 -3.3 -4.2 -6.8 -3.9 -7 -22.9 -26.3 -32.4 -32.8 -11.6 -8 -34.7 -17.2 -50.2 -20.1 -11 -2 -32.3 -1.6 -44.5 1 -16.1 3.3 -35.4 11.6 -47.8 20.4 -8.6 6.1 -22.4 19.6 -28.5 28 -9.3 12.6 -18.8 34.5 -21.9 50.5 -2.2 11.2 -2.5 34.2 -0.5 44.4 2.7 14.8 13.3 40.3 21.1 51.4 4.7 6.5 24.5 27 26.1 27 0.5 0 4.3 2.3 8.5 5.1 11.4 7.5 22.9 13.1 34.8 16.5 10.2 2.9 30.6 4 49.1 2.5z m1348.1 0 c28.9 -2.5 63 -21.9 81.3 -46.4 10.6 -14.1 18.4 -29.1 22.1 -42 3.9 -13.7 4.7 -42.5 1.9 -61.7 -2 -12.7 -8.9 -28.5 -19.5 -44.4 -6.8 -10 -9.9 -13.9 -15.2 -18.1 -2 -1.7 -5.7 -5 -8.4 -7.4 -7 -6.6 -12.9 -10.2 -25.6 -16 -20.5 -9.3 -33 -12.1 -53.8 -12.1 -18.1 0.1 -30.4 2.7 -48.4 10.3 -24.1 10.2 -39.7 23.3 -56.5 47.7 -2.6 3.9 -4.8 7.4 -4.8 7.9 0 0.5 -1.9 5.3 -4.3 10.7 -8 18.5 -11.3 39.3 -9.4 58.9 1.3 13.2 5.7 29.9 10.7 39.7 1.7 3.4 3 6.7 3 7.2 0 5.2 30.3 41.4 34.8 41.5 1 0 10.5 6.3 11.2 7.5 1.3 1.7 24.8 12.2 31.4 14 11.7 3.1 31.4 4.2 49.6 2.6z m65.7 -639.9 c1.5 -6 4.6 -17.3 6.9 -25.4 2.3 -8 5.4 -19.8 6.9 -26.1 2.8 -11.7 10.5 -40.5 14 -52.8 5.5 -19.2 11.5 -41.6 11.5 -43.2 0 -1.6 7.8 -30.9 17.3 -64.5 1.4 -4.9 3.2 -12.1 4.2 -16.2 2.2 -9.6 9.5 -37.3 17.3 -65.3 3.4 -12.3 6.7 -24.8 7.1 -27.7 0.5 -2.8 3.3 -13.9 6.3 -24.6 10.6 -37.3 12.3 -44.3 19.2 -72.1 1.6 -6.1 4.4 -16.8 6.5 -24 5.9 -20.7 9.8 -35.2 12.6 -46.5 8.3 -32.7 9.2 -36.3 18.1 -67.9 2.4 -8.6 5 -18 5.9 -20.9 0.7 -2.8 1.5 -6.3 1.5 -7.5 0 -1.3 1.6 -7.8 3.4 -14.6 2 -6.8 3.9 -13.6 4.3 -15.2 l0.6 -2.9 -12.3 0 c-6.8 0 -92.3 -5.1 -190.1 -11.5 -97.8 -6.4 -181.6 -11.5 -186.1 -11.5 -4.6 0 -44.7 -2.4 -89.1 -5.2 -44.5 -2.9 -91.7 -6 -104.9 -6.8 -13.2 -0.8 -49.4 -3.2 -80.5 -5.2 -31 -2 -66 -4.2 -77.9 -4.7 -11.8 -0.6 -96.5 -5.9 -188.1 -11.7 -91.7 -5.7 -175.4 -11 -186 -11.4 -10.7 -0.5 -94.1 -5.7 -185.5 -11.5 -91.3 -5.9 -178.6 -11.2 -193.9 -12 -60 -3.2 -103.1 -5.7 -107.7 -6.3 l-4.8 -0.5 6.6 39 c6.5 38.1 11.8 70.6 18.2 111.6 1.8 11.2 6.7 41.1 11.1 66.4 4.3 25.3 8.3 50.3 8.8 55.4 0.4 5.2 2.3 17.7 4.1 27.7 8.4 47.1 17.8 104.3 21.9 133.2 1.1 8 5.6 35.3 10 60.6 4.4 25.3 8.7 51.4 9.5 58 1.9 13.6 10.5 66 18.3 111.8 2.9 16.9 5.6 34.8 6.2 39.7 0.4 4.9 1.5 12 2.1 16 l1.3 7 661.3 0 661.3 0 2.7 -10.7z"/>
  <path d="M1327.8 1194.2 c-4.6 -1.9 -10 -4.5 -12 -6 -2 -1.4 -27.1 -25.9 -55.7 -54.6 -28.5 -28.6 -52.3 -52 -52.6 -52 -0.3 0 -32.2 -31.7 -70.8 -70.2 l-70.2 -70.3 -0.5 46.5 c-0.6 51.9 -0.5 50.8 -8.6 65.8 -15 28.5 -48.9 39.5 -80.7 26.3 -6.1 -2.5 -12.2 -7.3 -18.4 -14.3 -7.8 -9 -11.2 -14.5 -14.3 -24 l-2.7 -8.4 0.2 -63.7 c0 -35 0.4 -91.2 0.7 -124.9 0.5 -55.8 0.7 -61.8 2.6 -68.8 2.8 -10.7 5.6 -16.3 12.7 -24.8 6.7 -8 11.3 -11.9 18.2 -15.3 11 -5.3 10 -5.2 112.1 -6.3 52.6 -0.5 109.9 -0.8 127.5 -0.7 37.8 0.4 41.4 1 55.1 9.9 8 5.2 16 13.2 16 15.9 0 0.6 0.4 1.1 0.8 1.1 1.6 0 6.2 9.5 8.7 17.8 6.4 20.9 -0.1 44.8 -16.5 60.7 -5.6 5.5 -14.9 12 -19.6 13.9 -7.2 2.8 -22.6 3.8 -63 3.8 -29.6 0 -42.1 0.3 -41.8 1.1 0.2 0.6 55.7 56.4 123.3 124.1 122 122.1 122.9 123.1 126.7 131.2 9.1 19.2 9.1 35 -0.1 55.6 -4.4 9.8 -10.8 17 -22.1 24.6 -10.9 7.3 -18.3 9.4 -34.1 9.4 -11.8 0 -13.2 -0.2 -21 -3.4z"/>
 </g>
</svg>