<svg width="27" height="27" fill="none" xmlns="http://www.w3.org/2000/svg"><path d="M26.919 7.934c-.066-1.437-.294-2.418-.628-3.277a6.617 6.617 0 00-1.557-2.391A6.618 6.618 0 0022.343.708c-.859-.333-1.84-.561-3.277-.626C17.626.016 17.166 0 13.5 0S9.374.016 7.934.081C6.497.147 5.516.375 4.657.71c-.9.339-1.717.87-2.391 1.557a6.618 6.618 0 00-1.558 2.39c-.333.86-.561 1.841-.626 3.278C.016 9.374 0 9.834 0 13.5s.016 4.126.082 5.566c.065 1.437.293 2.418.627 3.277.339.9.87 1.717 1.557 2.39a6.616 6.616 0 002.391 1.558c.859.334 1.84.562 3.277.628 1.44.065 1.9.08 5.566.08s4.127-.015 5.566-.08c1.437-.066 2.418-.294 3.277-.628a6.902 6.902 0 003.948-3.948c.334-.859.562-1.84.628-3.277.065-1.44.081-1.9.081-5.566s-.016-4.126-.081-5.566zm-2.43 11.021c-.06 1.317-.28 2.031-.465 2.507a4.47 4.47 0 01-2.562 2.562c-.476.185-1.19.405-2.507.465-1.423.065-1.85.079-5.455.079s-4.032-.014-5.455-.08c-1.316-.059-2.031-.279-2.507-.464a4.183 4.183 0 01-1.552-1.01 4.182 4.182 0 01-1.01-1.552c-.185-.476-.405-1.19-.465-2.507-.065-1.423-.079-1.85-.079-5.455s.014-4.031.08-5.455c.06-1.316.279-2.031.464-2.507a4.185 4.185 0 011.01-1.552 4.18 4.18 0 011.552-1.01c.476-.185 1.19-.405 2.507-.465 1.423-.065 1.85-.079 5.455-.079s4.032.014 5.455.08c1.316.06 2.031.28 2.507.464a4.185 4.185 0 011.552 1.01 4.18 4.18 0 011.01 1.552c.185.476.405 1.19.465 2.507.065 1.423.078 1.85.078 5.455s-.013 4.032-.078 5.455z" fill="url(#paint0_linear)"/><path d="M13.5 6.567a6.933 6.933 0 100 13.865 6.933 6.933 0 000-13.865zM13.5 18a4.5 4.5 0 110-9 4.5 4.5 0 010 9z" fill="url(#paint1_linear)"/><path d="M22.326 6.294a1.62 1.62 0 11-3.24 0 1.62 1.62 0 013.24 0z" fill="url(#paint2_linear)"/><defs><linearGradient id="paint0_linear" x1="2.266" y1="24.734" x2="24.734" y2="2.266" gradientUnits="userSpaceOnUse"><stop stop-color="#FFD600"/><stop offset=".5" stop-color="#FF0100"/><stop offset="1" stop-color="#D800B9"/></linearGradient><linearGradient id="paint1_linear" x1="8.598" y1="18.402" x2="18.402" y2="8.598" gradientUnits="userSpaceOnUse"><stop stop-color="#FF6400"/><stop offset=".5" stop-color="#FF0100"/><stop offset="1" stop-color="#FD0056"/></linearGradient><linearGradient id="paint2_linear" x1="19.561" y1="7.439" x2="21.852" y2="5.148" gradientUnits="userSpaceOnUse"><stop stop-color="#F30072"/><stop offset="1" stop-color="#E50097"/></linearGradient></defs></svg>