<svg width="22" height="22" fill="none" xmlns="http://www.w3.org/2000/svg"><g clip-path="url(#clip0)"><path d="M19.86 14.95l-2.85-2.843c-1.017-1.015-2.746-.61-3.153.71-.305.915-1.323 1.422-2.239 1.219-2.034-.508-4.781-3.147-5.29-5.28-.305-.913.305-1.928 1.22-2.233 1.323-.406 1.73-2.132.713-3.147L5.412.533c-.814-.71-2.035-.71-2.747 0L.732 2.462C-1.2 4.492.936 9.873 5.718 14.645c4.781 4.772 10.174 7.006 12.208 4.975l1.933-1.929c.713-.812.713-2.03 0-2.741z" fill="#DF463D"/></g><defs><clipPath id="clip0"><path fill="#fff" d="M0 0h22v22H0z"/></clipPath></defs></svg>