<svg width="27" height="27" fill="none" xmlns="http://www.w3.org/2000/svg"><g clip-path="url(#clip0)"><path d="M22.404 14.656c-.436-.55-.311-.796 0-1.289.006-.005 3.61-4.985 3.98-6.673l.003-.001c.184-.616 0-1.068-.892-1.068h-2.952c-.752 0-1.098.388-1.284.822 0 0-1.503 3.598-3.63 5.93-.685.674-1.003.89-1.377.89-.185 0-.472-.216-.472-.831V6.693c0-.738-.21-1.068-.832-1.068h-4.642c-.471 0-.751.344-.751.665 0 .7 1.063.86 1.173 2.83v4.27c0 .937-.17 1.109-.547 1.109-1.003 0-3.439-3.612-4.882-7.747-.292-.802-.576-1.126-1.333-1.126H1.012C.17 5.626 0 6.014 0 6.448c0 .768 1.004 4.583 4.667 9.623 2.44 3.44 5.879 5.304 9.006 5.304 1.88 0 2.11-.414 2.11-1.126 0-3.287-.17-3.598.771-3.598.437 0 1.188.216 2.943 1.875 2.006 1.968 2.336 2.849 3.459 2.849h2.952c.841 0 1.267-.414 1.022-1.23-.561-1.719-4.355-5.252-4.526-5.489z" fill="#4B729F"/></g><defs><clipPath id="clip0"><path fill="#fff" d="M0 0h27v27H0z"/></clipPath></defs></svg>