<?xml version="1.0" encoding="utf-8"?>
<!DOCTYPE svg PUBLIC "-//W3C//DTD SVG 20010904//EN" "http://www.w3.org/TR/2001/REC-SVG-20010904/DTD/svg10.dtd">
<svg version="1.0" xmlns="http://www.w3.org/2000/svg" width="1040px" height="1040px" viewBox="0 0 1040 1040" preserveAspectRatio="xMidYMid meet">
 <g fill="#b5b5b5">
  <path d="M799.5 1038.4 c-1.1 -0.2 -7.8 -0.9 -15 -1.4 -12.1 -0.9 -15.4 -1.3 -30 -4 -3 -0.5 -7.9 -1.4 -10.7 -1.9 -2.9 -0.5 -7.3 -1.5 -9.8 -2.1 -2.5 -0.6 -6 -1.4 -7.8 -1.7 -1.8 -0.3 -3.5 -0.9 -3.8 -1.4 -0.3 -0.5 -1.6 -0.9 -2.9 -0.9 -1.3 0 -3.4 -0.4 -4.7 -0.9 -1.3 -0.5 -4.3 -1.4 -6.8 -2.1 -9.3 -2.6 -11.9 -3.5 -26 -8.7 -8 -3 -17 -6.4 -20 -7.5 -6.1 -2.3 -9.9 -3.8 -18 -7.5 -5.7 -2.6 -11 -5 -18.2 -8.2 -10.8 -4.7 -51.4 -25.5 -60.8 -31.1 -3 -1.8 -6.8 -4.1 -8.5 -5 -18.6 -10.7 -80 -50.5 -87.2 -56.5 -1 -0.8 -6.5 -4.9 -12.3 -9.1 -17 -12.5 -32.3 -24.1 -35.5 -27 -1.6 -1.4 -4.6 -3.8 -6.5 -5.3 -1.9 -1.4 -3.7 -2.8 -4 -3.1 -0.3 -0.3 -4.1 -3.5 -8.5 -7 -8.5 -6.7 -24.7 -20.1 -25.5 -21 -0.3 -0.3 -6.8 -6.1 -14.5 -12.9 -21 -18.5 -20.6 -18.2 -41 -37.5 -33.9 -32 -70 -69.6 -94.4 -98 -2.4 -2.8 -5.7 -6.7 -7.5 -8.6 -9.3 -10.4 -17 -19.7 -33.8 -40.7 -10.2 -12.7 -20.1 -25.3 -21.9 -27.9 -1.8 -2.7 -3.9 -5.5 -4.5 -6.4 -2.6 -3.2 -8.1 -10.7 -11.4 -15.5 -1.8 -2.7 -3.6 -5.2 -4 -5.5 -0.3 -0.3 -1.7 -2.1 -3 -4 -1.4 -1.9 -3.2 -4.4 -4.2 -5.4 -1 -1.1 -1.8 -2.6 -1.8 -3.3 0 -0.7 -0.4 -1.3 -0.8 -1.3 -0.5 0 -1.5 -1.2 -2.3 -2.7 -0.8 -1.6 -1.7 -3.2 -2.2 -3.8 -5.8 -7.6 -39.7 -61.4 -39.7 -63 0 -0.2 -1.3 -2.4 -3 -4.8 -1.6 -2.5 -3 -4.8 -3 -5.2 0 -0.4 -0.9 -2 -2.1 -3.6 -1.1 -1.6 -6.5 -11.6 -11.9 -22.2 -5.4 -10.5 -10.7 -21 -11.8 -23.2 -3.7 -7.1 -6.2 -12.8 -6.2 -14.2 0 -0.7 -0.4 -1.3 -1 -1.3 -0.5 0 -1 -0.6 -1 -1.3 0 -0.8 -0.6 -2.7 -1.4 -4.3 -0.8 -1.6 -2.2 -4.7 -3.1 -6.9 -1 -2.2 -2.8 -6.3 -4.1 -9.1 -3.5 -7.4 -9.3 -22.8 -17.8 -47.4 -4 -11.3 -4.6 -13.4 -4.6 -15.8 0 -1.1 -0.4 -2.3 -0.9 -2.6 -0.5 -0.3 -1.1 -2 -1.4 -3.8 -0.5 -3.1 -1.1 -5.5 -3.8 -14.8 -1 -3.4 -1.8 -7.3 -3.9 -19.5 -0.6 -3.3 -1.5 -8.5 -2.1 -11.5 -3.5 -19.5 -4.6 -58.1 -2 -75 0.7 -4.7 1.5 -10.3 1.8 -12.5 0.3 -2.2 0.9 -4.4 1.4 -5 0.5 -0.5 0.9 -2.1 0.9 -3.6 0 -1.5 0.5 -3.1 1 -3.4 0.6 -0.3 1 -1.6 1 -2.9 0 -1.2 0.4 -2.6 0.8 -3.1 0.5 -0.6 1.5 -3 2.2 -5.5 3.1 -9.8 11.4 -23.9 20 -34 6.4 -7.4 101.2 -102.1 107.5 -107.4 2.8 -2.2 5.8 -4.8 6.8 -5.7 2.4 -2.2 21.8 -11.9 23.6 -11.9 1.4 0 6.7 -1.5 10.6 -3.1 1.8 -0.7 15.3 -2 21.5 -2 7.3 -0.1 27.8 2.9 28.6 4.2 0.3 0.5 1.6 0.9 3 0.9 1.3 0 5.7 1.5 9.7 3.4 4 1.9 8.4 3.9 9.7 4.4 1.4 0.6 7 4.4 12.5 8.5 13 9.7 155.9 152.8 162.5 162.7 5.5 8.1 12 20.7 12 23.1 0 1 0.4 2 0.9 2.3 0.9 0.6 1.4 2.3 3.3 11.1 1.4 6.5 1.4 32.6 0 39 -0.6 2.8 -1.4 6.5 -1.8 8.3 -0.3 1.8 -1 3.5 -1.5 3.8 -0.5 0.3 -0.9 1.3 -0.9 2.2 0 2.9 -7.9 17.3 -13.5 24.7 -7 9.3 -13.9 15.5 -24 21.5 -6.5 3.8 -9.7 5.4 -18.7 8.9 -1.3 0.5 -4.5 1.9 -7.3 3.1 -2.7 1.2 -6.1 2.7 -7.5 3.4 -11.4 5 -28.1 19.5 -36.3 31.6 -2.8 4.1 -5.4 7.7 -5.9 7.8 -0.4 0.2 -0.8 1 -0.8 1.8 0 0.7 -0.8 2.8 -1.8 4.6 -2.8 5.1 -5.4 11.9 -6.4 16.8 -2 10 -2.9 25.8 -1.9 33.2 1.8 12.3 2.3 14.8 3.2 15.4 0.5 0.3 0.9 1.6 0.9 3 0 1.3 0.4 3.2 0.9 4.2 0.5 0.9 1.5 3.7 2.1 6.2 0.7 2.5 1.6 5.5 2.1 6.8 0.5 1.2 1.3 3.2 1.8 4.5 0.4 1.2 1.4 3.6 2.1 5.2 0.7 1.7 1.6 3.9 2 5 3.8 10.1 23.5 45.9 28.2 51.1 1 1.1 1.8 2.5 1.8 3.1 0 0.6 0.4 1.3 0.8 1.5 0.5 0.2 2.8 3.2 5.2 6.8 20.5 30.3 56.6 69.3 91 98 2.9 2.5 5.8 5 6.4 5.5 2.2 2.1 24.4 18.4 33.6 24.7 20.4 14 43.4 26.7 59.5 32.8 1.1 0.5 4.1 1.7 6.7 2.9 2.6 1.2 5.2 2.1 5.8 2.1 0.6 0 1.8 0.4 2.8 0.9 0.9 0.5 3.7 1.5 6.2 2.1 2.5 0.7 5.4 1.6 6.5 2.1 5.7 2.3 37.3 3.1 45.5 1.1 2.5 -0.6 5.9 -1.4 7.5 -1.7 3 -0.7 3.9 -1 10.8 -3.9 9 -3.8 11.6 -5.2 18.4 -9.8 10.5 -7 18.6 -15 25.9 -25.4 3.5 -5 6.4 -9.6 6.4 -10.2 0 -0.5 1.3 -3.6 2.9 -6.8 1.6 -3.2 4.1 -9 5.6 -12.9 1.4 -3.8 3.7 -8.7 5.1 -10.7 1.3 -2.1 2.4 -4 2.4 -4.3 0 -0.2 2 -3.1 4.4 -6.2 12.4 -16.2 29.7 -27.2 52.1 -33.1 7.1 -1.9 23.7 -3.2 28 -2.2 2.2 0.5 5.8 1 7.9 1 4 0 5 0.2 17.1 4 21.7 6.9 21 6.2 107.6 92.9 42.1 42.1 77.6 78 79 79.6 5.6 6.8 8.3 10.8 11.6 17.2 4.1 7.7 7.3 15.9 7.3 18.5 0 1 0.4 2.6 0.9 3.6 3.2 6.3 4 27.8 1.5 40.7 -0.9 4.4 -1.8 9.5 -2.1 11.3 -0.3 1.8 -0.9 3.5 -1.4 3.8 -0.5 0.3 -0.9 1.4 -0.9 2.5 0 1 -0.4 2.7 -1 3.7 -0.5 0.9 -2.5 5.2 -4.5 9.4 -1.9 4.2 -4.1 8.3 -4.8 9 -0.7 0.7 -2.9 3.8 -5 6.9 -2.1 3 -28.4 30.1 -58.5 60 -60.1 59.9 -62.1 61.6 -84.6 71.4 -6.6 2.9 -18.3 6.3 -30.1 8.6 -8 1.6 -39.7 4 -43 3.3z"/>
 </g>
</svg>