<?xml version="1.0" encoding="utf-8"?>
<!DOCTYPE svg PUBLIC "-//W3C//DTD SVG 20010904//EN" "http://www.w3.org/TR/2001/REC-SVG-20010904/DTD/svg10.dtd">
<svg version="1.0" xmlns="http://www.w3.org/2000/svg" width="694px" height="1040px" viewBox="0 0 694 1040" preserveAspectRatio="xMidYMid meet">
 <g fill="#b5b5b5">
  <path d="M342 1037.6 c-5.2 -1.2 -11.7 -7.1 -14.6 -13.2 -1 -2.1 -3.9 -7.5 -6.5 -12 -2.5 -4.4 -6.1 -10.7 -7.9 -14 -1.8 -3.2 -4.4 -7.9 -5.8 -10.4 -3 -5.4 -7.1 -12.9 -10.3 -19 -1.3 -2.5 -2.6 -4.7 -2.9 -5 -0.3 -0.3 -1.5 -2.5 -2.8 -5 -3.7 -7.2 -6.7 -12.5 -7.2 -13 -0.3 -0.3 -1.8 -3 -3.4 -6 -7.1 -13.6 -9.8 -18.6 -10.6 -19.5 -0.4 -0.5 -2.8 -4.8 -5.2 -9.5 -2.5 -4.7 -6.9 -12.5 -9.7 -17.4 -2.8 -4.9 -5.1 -9 -5.1 -9.2 0 -0.2 -1.4 -2.6 -3 -5.5 -1.7 -2.8 -4.8 -8.4 -6.9 -12.3 -2.1 -3.9 -4.8 -8.9 -6.1 -11.1 -2.4 -4.2 -6.2 -11 -10.1 -18.5 -1.3 -2.5 -2.6 -4.7 -2.9 -5 -0.5 -0.5 -3.8 -6.8 -9.4 -17.5 -1.2 -2.2 -2.3 -4.2 -2.6 -4.5 -0.5 -0.5 -1.7 -2.6 -7.3 -13 -1.9 -3.6 -5.4 -9.9 -7.7 -14 -2.3 -4.1 -5.8 -10.4 -7.8 -14 -1.9 -3.6 -4.7 -8.5 -6.1 -11 -1.5 -2.5 -3.3 -5.8 -4.1 -7.5 -0.8 -1.6 -2.2 -4.1 -3.1 -5.5 -0.9 -1.4 -3.4 -5.9 -5.6 -10 -2.2 -4.1 -5 -9.3 -6.3 -11.5 -1.3 -2.2 -3.9 -6.9 -5.8 -10.5 -1.9 -3.6 -4.5 -8.4 -5.8 -10.7 -1.3 -2.4 -3.5 -6.3 -4.9 -8.8 -1.4 -2.5 -3.7 -6.6 -5.2 -9.2 -1.4 -2.7 -4.4 -8.2 -6.6 -12.3 -2.3 -4.1 -7.3 -13.1 -11.1 -20 -3.9 -6.9 -7.8 -13.9 -8.6 -15.5 -0.8 -1.7 -1.7 -3.2 -2 -3.5 -0.5 -0.5 -3.5 -5.8 -7.2 -13 -1.3 -2.5 -2.5 -4.7 -2.8 -5 -0.6 -0.6 -1.4 -2 -8 -14.5 -2.9 -5.5 -5.6 -10.4 -6 -11 -0.4 -0.5 -2.5 -4.4 -4.7 -8.5 -2.2 -4.1 -5 -9.3 -6.3 -11.5 -1.3 -2.2 -3.9 -6.9 -5.8 -10.5 -1.9 -3.6 -3.8 -6.9 -4.2 -7.5 -0.4 -0.5 -2.2 -3.7 -4 -7 -4.2 -7.8 -10 -18.2 -12.2 -22 -2.4 -4 -18.1 -35.8 -20.7 -41.7 -1.2 -2.6 -2.1 -5.5 -2.1 -6.3 0 -0.8 -0.4 -1.5 -1 -1.5 -0.5 0 -1 -1 -1 -2.3 0 -1.3 -0.4 -2.7 -0.8 -3.2 -0.4 -0.6 -1.4 -2.8 -2.1 -5 -0.7 -2.2 -1.6 -4.9 -2.1 -6 -0.4 -1.1 -1.3 -4 -2 -6.5 -2.8 -10.1 -3.3 -11.6 -4.1 -13.2 -0.5 -1 -0.9 -3 -0.9 -4.6 0 -1.5 -0.4 -3.2 -0.9 -3.7 -0.5 -0.6 -1.1 -2.8 -1.4 -5 -0.3 -2.2 -1.1 -6.2 -1.7 -9 -4.9 -22.8 -7 -54.2 -5.8 -85.3 0.4 -9.7 1.2 -20.6 1.7 -24.2 2.9 -20.1 4.3 -27.9 6.1 -35 0.6 -2.5 1.4 -6 1.7 -7.8 0.3 -1.8 0.9 -3.5 1.4 -3.8 0.5 -0.3 0.9 -2 0.9 -3.9 0 -1.9 0.4 -3.7 1 -4 0.5 -0.3 1 -1.7 1 -3 0 -1.3 0.5 -3.7 1.1 -5.2 0.6 -1.5 1.6 -3.9 2.1 -5.3 0.6 -1.4 1.4 -3.3 1.9 -4.2 0.5 -1 0.9 -2.6 0.9 -3.6 0 -1 0.4 -2.2 0.8 -2.8 0.4 -0.5 1.4 -2.7 2.1 -4.9 1.7 -5.4 2.1 -6.4 8.1 -19 2.9 -6 6.2 -13 7.3 -15.5 1.2 -2.5 3.4 -6.4 4.9 -8.7 1.5 -2.3 2.8 -4.4 2.8 -4.6 0 -0.3 2.8 -4.9 6.2 -10.3 21.5 -34.4 51.9 -67.8 82.5 -90.5 5.9 -4.4 12.1 -9 13.6 -10.2 1.6 -1.2 4.7 -3.3 7 -4.6 2.3 -1.3 5.4 -3.2 6.9 -4.2 1.4 -1.1 2.9 -1.9 3.3 -1.9 0.3 0 3.2 -1.7 6.3 -3.8 8.4 -5.7 33.6 -17.6 49.7 -23.6 5.5 -2.1 10.9 -4.1 12 -4.6 2.9 -1.2 5.6 -2.1 9 -3.1 1.7 -0.4 4.8 -1.3 7 -1.9 2.2 -0.6 5.7 -1.6 7.8 -2.1 2 -0.5 5.6 -1.4 8 -2 9.4 -2.3 13.4 -3 33.7 -6 6.3 -0.9 37.8 -3.1 45 -3.1 7.2 0 38.7 2.2 45 3.1 20.3 3 24.3 3.7 33.8 6 2.3 0.6 5.9 1.5 8 2 2 0.5 5.5 1.5 7.7 2.1 2.2 0.6 5.4 1.5 7 1.9 3.4 1 6.1 1.9 9 3.1 1.1 0.5 6.5 2.5 12 4.6 16.1 6 41.3 17.9 49.7 23.6 3.1 2.1 6 3.8 6.3 3.8 0.4 0 1.9 0.8 3.3 1.9 1.5 1 4.6 2.9 6.9 4.2 2.3 1.3 5.4 3.4 7 4.6 1.5 1.2 7.7 5.8 13.6 10.2 23.7 17.6 49 43.2 67.3 68.2 8 11 21.4 31.3 21.4 32.6 0 0.2 1.3 2.3 2.8 4.6 1.5 2.3 3.7 6.2 4.9 8.7 1.1 2.5 4.4 9.5 7.3 15.5 6 12.6 6.4 13.6 8.1 19 0.7 2.2 1.7 4.4 2.1 4.9 0.4 0.6 0.8 1.8 0.8 2.8 0 1 0.4 2.6 0.9 3.6 0.5 0.9 1.3 2.8 1.9 4.2 0.5 1.4 1.5 3.8 2.1 5.3 0.6 1.5 1.1 3.9 1.1 5.2 0 1.3 0.5 2.7 1 3 0.6 0.3 1 2.1 1 4 0 1.9 0.4 3.6 0.9 3.9 0.5 0.3 1.1 2 1.4 3.8 0.3 1.8 1.1 5.3 1.7 7.8 1.8 7.1 3.2 14.9 6.1 35 0.5 3.6 1.3 14.5 1.7 24.2 1.2 31.1 -0.9 62.5 -5.8 85.3 -0.6 2.8 -1.4 6.8 -1.7 9 -0.3 2.2 -0.9 4.4 -1.4 5 -0.5 0.5 -0.9 2.2 -0.9 3.7 0 1.6 -0.4 3.6 -0.9 4.6 -0.5 0.9 -1.5 3.7 -2.1 6.2 -2.2 8.1 -3.3 11.5 -4.1 13.5 -0.4 1.1 -1.7 4.9 -2.9 8.5 -1.2 3.6 -2.7 7.9 -3.5 9.5 -0.7 1.7 -2 4.8 -3 7 -2.9 6.9 -18.3 37.6 -23 45.9 -2.5 4.4 -6.4 11.3 -8.6 15.5 -2.3 4.2 -4.5 8.1 -4.9 8.6 -0.4 0.6 -2.9 5.1 -5.5 10 -2.6 5 -5.5 10.1 -6.4 11.5 -0.9 1.4 -2.3 3.9 -3.1 5.5 -0.8 1.7 -2.8 5.3 -4.4 8 -1.6 2.8 -4.5 7.9 -6.4 11.5 -1.9 3.6 -4.6 8.5 -6 11 -1.4 2.5 -4.3 7.9 -6.5 12 -2.2 4.1 -4.3 8 -4.7 8.5 -0.5 0.6 -2.4 3.9 -4.3 7.5 -1.9 3.6 -7.6 13.8 -12.6 22.8 -5 9 -9.1 16.7 -9.1 17.2 0 0.5 -0.3 1 -0.7 1.2 -0.5 0.2 -1.9 2.3 -3.2 4.8 -3.9 7.5 -7.7 14.3 -10.1 18.5 -1.3 2.2 -3.9 6.9 -5.8 10.5 -1.9 3.6 -4.6 8.5 -6 11 -1.4 2.5 -4.3 7.9 -6.5 12 -2.2 4.1 -4.3 8 -4.7 8.5 -0.5 0.6 -2.4 3.9 -4.3 7.5 -1.9 3.6 -7.6 13.9 -12.7 23 -5.1 9.1 -10.9 19.4 -12.8 23 -5 9.5 -6.6 12.4 -7.2 13 -0.3 0.3 -1.8 3 -3.4 6 -1.6 3 -4 7.5 -5.4 10 -1.4 2.5 -3.8 6.9 -5.4 9.8 -1.5 2.8 -4.1 7.6 -5.6 10.5 -1.6 2.8 -3.9 7 -5.2 9.2 -1.3 2.2 -4 7.2 -6.1 11.1 -2.1 3.9 -5.2 9.5 -6.9 12.3 -1.6 2.9 -3 5.3 -3 5.5 0 0.2 -2.3 4.3 -5.1 9.2 -2.8 4.9 -7.2 12.7 -9.7 17.4 -2.4 4.7 -4.8 9 -5.2 9.5 -0.5 0.6 -2.5 4.2 -4.5 8 -2.1 3.9 -4.9 9 -6.3 11.5 -6.1 10.9 -7.1 12.8 -9.8 18 -1.6 3 -3.1 5.7 -3.4 6 -0.3 0.3 -1.6 2.5 -2.9 5 -3.2 6.1 -7.3 13.6 -10.3 19 -1.4 2.5 -4 7.2 -5.8 10.4 -1.8 3.3 -5.4 9.6 -7.9 14 -2.6 4.5 -5.5 9.9 -6.5 12 -2.7 5.7 -9.6 12.2 -13.7 12.9 -1.9 0.3 -4.1 0.7 -4.9 1 -0.8 0.2 -3.5 -0.1 -6 -0.7z m34 -518.5 c3.6 -0.6 8.2 -1.4 10.3 -1.7 2 -0.4 4 -1 4.3 -1.5 0.3 -0.5 1.5 -0.9 2.7 -0.9 2.4 0 9.3 -2.2 10.3 -3.3 0.4 -0.4 1.6 -0.7 2.6 -0.7 1 0 2.6 -0.4 3.6 -0.9 0.9 -0.5 3.5 -1.7 5.7 -2.6 8.4 -3.6 15.2 -7 19.2 -9.7 2.3 -1.5 4.5 -2.8 4.8 -2.8 0.4 0 5.1 -3.2 10.4 -7.2 27.7 -20.6 48.4 -47.8 61.1 -80.2 1.7 -4.3 3.5 -9.7 4.1 -12 0.6 -2.3 1.5 -5.9 2 -8.1 6.2 -24.5 5.8 -60.6 -0.9 -85.5 -3.8 -14.3 -12.7 -35.3 -18.1 -42.9 -1.2 -1.6 -2.1 -3.2 -2.1 -3.6 0 -0.7 -6 -9.7 -7 -10.5 -0.3 -0.3 -1.7 -2.1 -3 -4 -8.6 -12.5 -34.8 -36.4 -46 -42.2 -1.4 -0.7 -2.7 -1.5 -3 -1.8 -2.2 -2.2 -20.4 -11 -29 -14 -1.9 -0.7 -4.4 -1.6 -5.5 -2 -1.1 -0.5 -3.1 -1.1 -4.5 -1.5 -1.4 -0.3 -4.1 -1.1 -6 -1.6 -15.3 -4.1 -25 -5.3 -45 -5.3 -20 0 -29.7 1.2 -45 5.3 -1.9 0.5 -4.6 1.3 -6 1.6 -1.4 0.4 -3.4 1 -4.5 1.5 -1.1 0.4 -3.6 1.3 -5.5 2 -8.6 3 -26.8 11.8 -29 14 -0.3 0.3 -1.6 1.1 -3 1.8 -11.2 5.8 -37.4 29.7 -46 42.2 -1.3 1.9 -2.7 3.7 -3 4 -1 0.8 -7 9.8 -7 10.5 0 0.4 -0.9 2 -2.1 3.6 -5.4 7.6 -14.3 28.6 -18.1 42.9 -6.7 24.9 -7.1 61 -0.9 85.5 0.5 2.2 1.4 5.8 2 8.1 0.6 2.3 2.4 7.7 4.1 12 12.7 32.4 33.4 59.6 61.1 80.2 5.3 4 10 7.2 10.4 7.2 0.3 0 2.5 1.3 4.8 2.8 4 2.7 10.8 6.1 19.2 9.7 2.2 0.9 4.8 2.1 5.7 2.6 1 0.5 2.6 0.9 3.6 0.9 1 0 2.2 0.3 2.6 0.7 1 1.1 7.9 3.3 10.3 3.3 1.2 0 2.4 0.4 2.7 0.9 0.6 0.9 2.9 1.4 14.3 2.9 3.4 0.4 6.5 1.1 7 1.5 1.1 1.1 43.8 0.1 51.3 -1.2z"/>
 </g>
</svg>